<?xml version="1.0" encoding="UTF-8"?>
<svg width="92px" height="101px" viewBox="0 0 92 101" version="1.1" xmlns="http://www.w3.org/2000/svg" xmlns:xlink="http://www.w3.org/1999/xlink">
    <!-- Generator: sketchtool 52.5 (67469) - http://www.bohemiancoding.com/sketch -->
    <title>BE281F8A-8392-4E78-9C83-221E0D1F6D34</title>
    <desc>Created with sketchtool.</desc>
    <g id="Page-1" stroke="none" stroke-width="1" fill="none" fill-rule="evenodd">
        <g id="2560px_Layout_UI" transform="translate(-674.000000, -1038.000000)" fill-rule="nonzero">
            <g id="slipper-2" transform="translate(674.000000, 1038.000000)">
                <g id="slipper">
                    <path d="M18.6870078,0.021376952 C18.6870078,0.021376952 -0.498887967,0.203453147 0.00994511988,33.7027114 C0.00994511988,33.7027114 1.49964697,56.6080151 8.31092782,78.1884827 C11.9228118,88.5569626 15.3156919,103.436316 29.9755055,100.661183 C37.9411569,99.1532842 43.3563121,91.7272188 42.3388438,83.7063975 C41.5263331,77.3007873 41.5298941,76.9246017 40.7173834,70.5191888 C39.3265994,59.5549666 38.8961092,47.8360062 40.2985655,36.7984012 C40.2985655,36.7984012 45.6349822,-1.02649818 18.6870078,0.021376952 Z" id="Shape" fill="#FFF000"></path>
                    <path d="M29.9678109,100.663448 C23.3368896,101.90989 19.0087179,99.5708756 15.9230769,95.6817955 C18.5449216,97.25205 21.8203964,97.9014388 26.0218803,97.1122933 C33.9933174,95.6129952 39.4106087,88.2333279 38.392949,80.2650357 C37.5795734,73.8993401 37.5837303,73.5249566 36.7703547,67.1612211 C35.3787678,56.2668573 34.9476333,44.6219623 36.351493,33.6548778 C36.351493,33.6548778 39.1388237,14.0414946 30.5194969,3.54385965 C43.8510179,12.1940787 40.2974237,37.2060327 40.2974237,37.2060327 C38.8935639,48.1731172 39.3246985,59.8180122 40.7162854,70.7123761 C41.529661,77.0780716 41.5255041,77.4524552 42.3388797,83.8161906 C43.3565394,91.786639 37.9372686,99.1661102 29.9678109,100.663448 Z" id="Shape" fill="#EFE110"></path>
                    <path d="M39.4653243,54.849213 C19.3435695,49.2801879 9.04086258,56.2582835 4.22779369,62.0175439 C0.861946284,46.4131683 0.0098605389,33.4044387 0.0098605389,33.4044387 C-0.496528623,0.201834321 18.6697675,0.0211792447 18.6697675,0.0211792447 C45.5947678,-1.01719642 40.2632529,36.4718602 40.2632529,36.4718602 C39.4933912,42.4733627 39.2779485,48.6776132 39.4653243,54.849213 Z" id="Shape" fill="#FFF000"></path>
                    <path d="M40.2654808,37.0565143 C39.5006065,43.1297934 39.2856085,49.407223 39.472307,55.6520123 C19.4649086,50.0157181 9.22184223,57.0773071 4.43607159,62.9035088 C3.41158808,58.0719473 2.37374089,50.8182748 1.76923077,46.7811594 C6.91916177,44.0769567 12.9793954,42.4542373 23.633788,41.6906512 C28.1776367,41.3650391 32.1898859,38.7087089 32.9803085,34.1928685 C33.3515437,32.0718399 33.786846,29.9031366 34.1185798,27.2687645 C34.1185798,27.2687645 35.8531072,14.8567315 32.3231297,4.42982456 C43.4690308,14.142007 40.2654808,37.0565143 40.2654808,37.0565143 Z" id="Shape" fill="#EFE110"></path>
                    <path d="M13.2956263,59.7704412 C13.8719016,67.0611453 15.9077996,73.6933432 18.0569121,80.6039793 C19.661928,85.7650293 22.727744,92.4893107 29.2192291,91.059133 C33.2598274,90.1689265 35.9202689,86.2463295 35.2931747,82.1033687 C34.7516289,78.5254385 34.3503749,74.9278187 33.8298239,71.3461096 C32.672368,63.3801929 33.5066624,51.5632778 22.6612281,49.7136529 C17.1460949,48.7729297 12.8929988,54.6762163 13.2956263,59.7704412 Z" id="Shape" fill="#CAF1FF"></path>
                    <path d="M25.9111838,47.8728857 C24.8953057,47.1232943 23.7062326,46.5670701 22.3855712,46.2781937 C18.9216718,45.5203823 15.480865,46.7890118 13.3394187,49.281452 C12.6800833,48.9579338 11.9711784,48.7062433 11.2192733,48.5416464 C6.25116563,47.4548368 1.32745159,50.5332499 0.221989893,55.4175323 C-0.883471802,60.3018147 2.24757476,65.1422567 7.21568246,66.229262 C10.6795819,66.9870734 14.1203886,65.7184439 16.261835,63.2260038 C16.9211703,63.5495219 17.6300752,63.8012124 18.3819803,63.9658093 C22.0059358,64.7586538 25.6046087,63.3334517 27.716592,60.6092841 C28.7324701,61.3590712 29.9215432,61.9150996 31.2422046,62.2039761 C36.2103123,63.2907857 41.1338273,60.2123726 42.239488,55.3280902 C43.3451488,50.4438078 40.2139032,45.6033658 35.2457955,44.5163605 C31.6216409,43.7235159 28.023167,45.1487181 25.9111838,47.8728857 Z" id="Shape" fill="#1EC6FF"></path>
                    <path d="M91.9900624,33.7027114 C91.9900624,33.7027114 90.5003603,56.6080151 83.6890783,78.1884827 C80.0771936,88.5569626 76.684313,103.436316 62.0244968,100.661183 C54.0588439,99.1532842 48.6436877,91.7272188 49.6611562,83.7063975 C50.4736671,77.3007873 50.470106,76.9246017 51.2826169,70.5191888 C52.6734012,59.5549666 53.1040893,47.8360062 51.7014348,36.7984012 C51.7014348,36.7984012 46.3650172,-1.02649818 73.3129964,0.021376952 C73.3129964,0.021376952 92.4986978,0.203453147 91.9900624,33.7027114 Z" id="Shape" fill="#FFF000"></path>
                    <path d="M91.9901801,33.6419413 C91.9901801,33.6419413 90.51525,56.568501 83.7772699,78.1701797 C80.3183475,88.216765 77.0614059,102.49902 63.6923077,100.872438 C73.8025072,99.4904941 76.7300555,87.142644 79.8192669,78.1701797 C86.557247,56.568501 88.0321771,33.6419413 88.0321771,33.6419413 C88.1251431,27.4353386 87.5512982,22.3701868 86.5511797,18.2385725 C85.5612386,11.0312997 83.4277178,6.07217785 80.9687181,2.65789474 C86.2219822,6.23724497 92.2771026,14.5107409 91.9901801,33.6419413 Z" id="Shape" fill="#EFE110"></path>
                    <path d="M78.6346614,59.9213779 C78.0602048,67.1771298 76.030732,73.7775324 73.8884021,80.6550382 C72.2884515,85.7913457 69.2323112,92.4833903 62.761313,91.0600691 C58.7334668,90.1741302 56.0814216,86.2703386 56.7065367,82.1472395 C57.2463734,78.5864621 57.646361,75.0060896 58.1652692,71.4415516 C59.3190722,63.5138242 58.4874108,47.1196015 69.2984216,45.2786459 C72.9790903,44.6519966 76.5279294,47.2237132 77.668432,50.6306982 C78.6825816,53.6602289 78.8822821,56.7928817 78.6346614,59.9213779 Z" id="Shape" fill="#CAF1FF"></path>
                    <path d="M52.5348298,54.8492121 C72.6565061,49.2801863 82.9591727,56.2582828 87.7722228,62.0175439 C91.1380571,46.4131664 91.9901395,33.4044351 91.9901395,33.4044351 C92.4965267,0.201826553 73.3303054,0.0211714534 73.3303054,0.0211714534 C46.4054103,-1.01700883 51.7367067,36.471857 51.7367067,36.471857 C52.5067631,42.4733602 52.722205,48.6776116 52.5348298,54.8492121 Z" id="Shape" fill="#FFF000"></path>
                    <path d="M91.9901971,33.3897902 C91.9901971,33.3897902 91.1439814,46.4051087 87.7958763,62.0175439 C83.0091061,56.2559981 72.7639006,49.2727747 52.7523236,54.8465205 C52.9186183,49.3576759 52.7664764,43.8445739 52.1923077,38.4688005 C60.0572981,37.402449 68.1383144,38.1299781 76.1405077,39.9976094 C79.453231,40.7707192 83.8107014,42.0675169 84.9511762,37.8711663 C86.4264024,32.446878 86.4893035,25.9462613 86.0489961,20.3766236 C85.6248071,14.9928297 84.0969012,8.07005431 80.8704703,2.65789474 C86.1584832,6.18383865 92.2783626,14.3746549 91.9901971,33.3897902 Z" id="Shape" fill="#EFE110"></path>
                    <path d="M56.7542061,44.5163605 C60.3783615,43.7235159 63.9768362,45.1487181 66.08882,47.8728857 C67.1046983,47.1232943 68.2937716,46.5670701 69.6144333,46.2781937 C73.0783335,45.5203823 76.519141,46.7890118 78.6605878,49.281452 C79.3199233,48.9579338 80.0288284,48.7062433 80.7807337,48.5416464 C85.7488425,47.4548368 90.6725576,50.5332499 91.7780196,55.4175323 C92.8834815,60.3018147 89.7522352,65.1422567 84.7843254,66.229262 C81.3204252,66.9870734 77.8796177,65.7184439 75.7381709,63.2260038 C75.0788354,63.5495219 74.3699303,63.8012124 73.6180251,63.9658093 C69.9940688,64.7586538 66.395395,63.3334517 64.2834113,60.6092841 C63.267533,61.3590712 62.0784596,61.9150996 60.7577979,62.2039761 C55.7896891,63.2907857 50.866173,60.2123726 49.760512,55.3280902 C48.654851,50.4438078 51.7860973,45.6033658 56.7542061,44.5163605 Z" id="Shape" fill="#1EC6FF"></path>
                </g>
            </g>
        </g>
    </g>
</svg>