<?xml version="1.0" encoding="UTF-8"?>
<svg width="89px" height="100px" viewBox="0 0 89 100" version="1.1" xmlns="http://www.w3.org/2000/svg" xmlns:xlink="http://www.w3.org/1999/xlink">
    <!-- Generator: sketchtool 52.5 (67469) - http://www.bohemiancoding.com/sketch -->
    <title>D768B2A2-C257-4DDE-BBEF-51A8AD6222B3</title>
    <desc>Created with sketchtool.</desc>
    <g id="Page-1" stroke="none" stroke-width="1" fill="none" fill-rule="evenodd">
        <g id="2560px_Layout_UI" transform="translate(-1794.000000, -1039.000000)">
            <g id="magic-ball" transform="translate(1794.000000, 1039.000000)">
                <circle id="Oval" fill="#1EC6FF" cx="45" cy="43.5" r="43.5"></circle>
                <path d="M76.5,72.6463771 C68.5134962,81.4629447 56.9765646,87 44.1480874,87 C20.0422415,87 0.5,67.4506967 0.5,43.3361399 C0.5,25.1542962 11.6098773,9.56725527 27.4089288,3 C20.3895659,10.748546 16.1127539,21.0289892 16.1127539,32.3102372 C16.1127539,56.4247941 35.6549954,75.9740973 59.7608413,75.9740973 C65.6916074,75.9739014 71.3459635,74.7908469 76.5,72.6463771 Z" id="Path" fill="#58D5FF"></path>
                <path d="M72.2109603,77 L47.491015,77 L42.508985,77 L17.7890397,77 L15.5056093,98.8960256 C15.4440955,99.4857435 15.8963683,100 16.4765506,100 L42.508985,100 L47.491015,100 L73.5234494,100 C74.1036317,100 74.5559045,99.4857435 74.4943907,98.8960256 L72.2109603,77 Z" id="Path" fill="#F85ED0"></path>
                <path d="M37.5,77 L35.1454947,100 L16.4588137,100 C15.8891691,100 15.4451109,99.4857525 15.5055074,98.8960447 L17.7470809,77 L37.5,77 Z" id="Path" fill="#CE60B1"></path>
                <g id="Group" transform="translate(59.500000, 24.000000)" fill="#EFE110">
                    <path d="M4.30253061,0.323076923 C3.76335714,2.34923077 2.58768367,5.52384615 0.337928571,6.65923077 C0.0391632653,6.81 0.0391632653,7.22211538 0.337928571,7.37269231 C2.58768367,8.50807692 3.76335714,11.6826923 4.30253061,13.7088462 C4.40761224,14.1038462 4.97005102,14.1038462 5.07513265,13.7088462 C5.61430612,11.6826923 6.78997959,8.50807692 9.03973469,7.37269231 C9.3385,7.22192308 9.3385,6.80980769 9.03973469,6.65923077 C6.78997959,5.52384615 5.61430612,2.34923077 5.07513265,0.323076923 C4.9702449,-0.0719230769 4.40780612,-0.0719230769 4.30253061,0.323076923 Z" id="Path"></path>
                    <path d="M15.1166327,15.0484615 C14.6850612,16.5405769 13.8378163,18.6155769 12.3280918,19.4721154 C12.0541429,19.6275 12.0541429,20.0065385 12.3280918,20.1619231 C13.8380102,21.0184615 14.6850612,23.0934615 15.1166327,24.5855769 C15.2265612,24.9653846 15.7729082,24.9653846 15.8828367,24.5855769 C16.3144082,23.0934615 17.1616531,21.0184615 18.6713776,20.1619231 C18.9453265,20.0065385 18.9453265,19.6275 18.6713776,19.4721154 C17.1614592,18.6155769 16.3144082,16.5405769 15.8828367,15.0484615 C15.773102,14.6686538 15.2265612,14.6686538 15.1166327,15.0484615 Z" id="Path"></path>
                </g>
            </g>
        </g>
    </g>
</svg>