<?xml version="1.0" encoding="UTF-8"?>
<svg width="100px" height="87px" viewBox="0 0 100 87" version="1.1" xmlns="http://www.w3.org/2000/svg" xmlns:xlink="http://www.w3.org/1999/xlink">
    <!-- Generator: sketchtool 52.5 (67469) - http://www.bohemiancoding.com/sketch -->
    <title>3B3A6717-2E7E-44A3-A899-85C0751C107E</title>
    <desc>Created with sketchtool.</desc>
    <defs>
        <polygon id="path-1" points="0.0100207921 0.495897909 58 0.495897909 58 60 0.0100207921 60"></polygon>
    </defs>
    <g id="Page-1" stroke="none" stroke-width="1" fill="none" fill-rule="evenodd">
        <g id="2560px_Layout_UI" transform="translate(-1040.000000, -1045.000000)">
            <g id="Group-6" transform="translate(1040.000000, 1045.000000)">
                <g id="Group-3" transform="translate(42.000000, 27.000000)">
                    <mask id="mask-2" fill="white">
                        <use xlink:href="#path-1"></use>
                    </mask>
                    <g id="Clip-2"></g>
                    <path d="M40.1846396,26.1940976 C37.0216297,26.1940976 34.4575416,22.4770244 34.4575416,20.3477561 C34.4575416,18.2170244 37.0216297,18.480439 40.1846396,18.480439 C43.3476495,18.480439 45.913202,20.2072683 45.913202,22.3365366 C45.9117376,24.4672683 43.3476495,26.1940976 40.1846396,26.1940976 M39.8449089,47.4399512 C39.7907277,47.6653171 39.6223267,47.8511707 39.4012089,47.9243415 C39.1786267,47.9975122 38.9340792,47.9506829 38.7554277,47.7999512 C36.4036713,45.8258049 32.4045139,44.5145854 27.8166851,44.5145854 C23.2273921,44.5145854 19.2267703,45.8258049 16.8764782,47.7999512 C16.6978267,47.9492195 16.4532792,47.9945854 16.2321614,47.9243415 C16.0095792,47.8482439 15.8411782,47.6653171 15.786997,47.4399512 C15.5922376,46.6101951 15.4736248,45.7570244 15.4736248,44.8701951 C15.4736248,38.0565366 20.9986416,32.5350732 27.8166851,32.5350732 C34.6332644,32.5350732 40.1582812,38.0565366 40.1582812,44.8701951 C40.1582812,45.7570244 40.038204,46.6116585 39.8449089,47.4399512 M54.9468168,0.795073171 C54.3215366,0.45995122 53.5849653,0.404341463 52.9157545,0.638487805 C47.0480782,2.6975122 37.9968911,4.02482927 27.8166851,4.02482927 C25.3404584,4.02482927 22.9550218,3.92970732 20.642803,3.78190244 C19.4464238,9.18043902 17.5354386,14.1384878 15.0943564,18.5053171 C15.2129693,18.5009268 15.3257248,18.480439 15.445802,18.480439 C18.6102762,18.480439 21.1743644,18.2170244 21.1743644,20.3477561 C21.1743644,22.4770244 18.6102762,26.1940976 15.445802,26.1940976 C13.6051059,26.1940976 11.9811347,25.5984878 10.9341198,24.6882439 C7.77257426,28.6101951 4.07946733,31.7053171 0.0100207921,33.7497073 C4.5978495,49.1770244 15.3213317,60.000439 27.8166851,60.000439 C44.4869188,60.000439 58,40.7389756 58,16.9819024 C58,11.8570244 57.3600762,6.95312195 56.2017703,2.39897561 C56.0289762,1.71117073 55.572097,1.13019512 54.9468168,0.795073171 Z" id="Fill-1" fill="#1EC6FF" mask="url(#mask-2)"></path>
                </g>
                <path d="M37.2105327,23.6203148 C37.2105327,21.507575 39.8030031,17.8233399 42.9991995,17.8233399 C46.1953959,17.8233399 48.7863866,19.5355878 48.7863866,21.6468765 C48.7863866,23.7581653 46.1953959,25.4704132 42.9991995,25.4704132 C39.8030031,25.4704132 37.2105327,25.7316035 37.2105327,23.6203148 M30.5,50.9364732 C23.6119008,50.9364732 18.0274355,45.460182 18.0274355,38.7055091 C18.0274355,37.8247172 18.1487726,36.9787506 18.3455754,36.1589031 C18.3988453,35.9325381 18.5690132,35.7511559 18.7939307,35.678603 C19.0188482,35.6060502 19.2644819,35.652484 19.4450078,35.8004919 C21.8229187,37.7579685 25.8640355,39.0595671 30.5,39.0595671 C35.1374442,39.0595671 39.178561,37.7579685 41.5549922,35.8004919 C41.7355181,35.651033 41.9826315,35.6045991 42.2060693,35.678603 C42.4295071,35.7497049 42.6011547,35.9325381 42.6559043,36.1589031 C42.8527072,36.9787506 42.9725645,37.8247172 42.9725645,38.7055091 C42.9740442,45.460182 37.3880992,50.9364732 30.5,50.9364732 M12.2121337,21.6468765 C12.2121337,19.5355878 14.8031244,17.8233399 18.0022802,17.8233399 C21.1984766,17.8233399 23.7894673,21.507575 23.7894673,23.6203148 C23.7894673,25.7316035 21.1984766,25.4704132 18.0022802,25.4704132 C14.8031244,25.4704132 12.2121337,23.7581653 12.2121337,21.6468765 M61,16.3447122 C61,11.2631087 60.3548418,6.40061485 59.1843829,1.88637482 C59.0082961,1.20437777 58.548103,0.626856862 57.9147827,0.294564683 C57.5418931,0.0986719134 57.1275713,0 56.7102901,0 C56.4247041,0 56.1376383,0.0449827841 55.8624102,0.140752582 C49.9346497,2.18384161 40.788497,3.4970487 30.5,3.4970487 C20.2129827,3.4970487 11.0653503,2.18384161 5.13611003,0.140752582 C4.86384145,0.0449827841 4.57825539,0 4.29414904,0 C3.87686784,0 3.45958665,0.100122971 3.08521735,0.29601574 C2.45485639,0.628307919 1.99022414,1.20582882 1.81561712,1.88637482 C0.646637881,6.40206591 0,11.2631087 0,16.3447122 C0,39.9040826 13.6548612,59 30.5,59 C47.3466185,59 61,39.9040826 61,16.3447122" id="Fill-4" fill="#F85ED0"></path>
            </g>
        </g>
    </g>
</svg>